<svg width="24" height="24" viewBox="0 0 24 24" fill="none" xmlns="http://www.w3.org/2000/svg">
<g id="Icon  3">
<path id="Oval" fill-rule="evenodd" clip-rule="evenodd" d="M12 24C18.6274 24 24 18.6274 24 12C24 5.37258 18.6274 0 12 0C5.37258 0 0 5.37258 0 12C0 18.6274 5.37258 24 12 24Z" fill="#36B37E"/>
<path id="Icon" d="M10.3984 15.8242L7.13666 12.582C7.04551 12.4909 6.99994 12.3737 6.99994 12.2305C6.99994 12.0873 7.04551 11.9701 7.13666 11.8789L7.85931 11.1758C7.95046 11.0716 8.06439 11.0196 8.20111 11.0196C8.33783 11.0196 8.45827 11.0716 8.56244 11.1758L10.7499 13.3633L15.4374 8.6758C15.5416 8.57164 15.662 8.51955 15.7987 8.51955C15.9355 8.51955 16.0494 8.57164 16.1405 8.6758L16.8632 9.37893C16.9543 9.47007 16.9999 9.58726 16.9999 9.73049C16.9999 9.87372 16.9543 9.9909 16.8632 10.0821L11.1015 15.8242C11.0103 15.9284 10.8932 15.9805 10.7499 15.9805C10.6067 15.9805 10.4895 15.9284 10.3984 15.8242Z" fill="white"/>
</g>
</svg>
